<svg width="245" height="262" viewBox="0 0 245 262" fill="none" xmlns="http://www.w3.org/2000/svg">
<path d="M212.5 62L223 50" stroke="#2D516C" stroke-width="2"/>
<path d="M222.192 56.4843C222.112 56.7934 221.825 57.0412 221.615 57.2603C221.115 57.7819 220.526 58.2592 220.104 58.8504C220.012 58.9797 219.987 59.1269 219.869 59.2358C219.705 59.3872 219.472 59.5165 219.356 59.7131C219.311 59.7898 219.325 59.8638 219.256 59.9403C219.048 60.172 218.708 60.2897 218.435 60.4176C218.019 60.612 217.591 60.8486 217.161 61.0072C216.942 61.0878 216.688 61.1245 216.495 61.2267C216.41 61.2716 216.338 61.3369 216.265 61.4003C215.905 61.7151 216.859 60.6487 217.118 60.2466C217.434 59.7542 217.825 59.3156 218.121 58.8096C218.36 58.4006 218.492 57.9429 218.746 57.541C218.916 57.2716 219.066 57.0581 219.323 56.8723C219.642 56.6414 219.999 56.4983 220.349 56.3235C220.742 56.1268 221.06 55.8868 221.355 55.5553C221.609 55.2688 221.771 54.9459 221.998 54.6466C222.164 54.4268 222.376 54.2225 222.524 53.9932C222.585 53.8976 222.663 53.7013 222.763 53.6358C222.857 53.5749 222.946 53.767 222.973 53.8145C223.198 54.2108 223.473 54.4836 223.818 54.7819C224.085 55.0134 224.334 55.3133 224.668 55.4481C224.961 55.5666 225.222 55.7215 225.5 55.8718C225.868 56.0709 226.279 56.215 226.628 56.4486C226.823 56.5797 226.992 56.7545 227.179 56.8978C227.595 57.216 228 57.5408 228.394 57.8856C229.347 58.7193 230.085 59.7162 230.829 60.7315C231.225 61.2718 231.472 61.7877 231.472 62.4621C231.472 62.8826 231.525 63.3399 231.447 63.7536C231.382 64.0972 231.262 64.4171 231.22 64.7669C231.158 65.2744 231.059 65.6697 230.783 66.1069C230.366 66.7668 229.593 67.3339 228.92 67.6894C228.419 67.954 227.804 68.1121 227.337 68.4398C227.127 68.5875 226.38 68.8518 226.393 69.1749C226.398 69.3076 226.669 69.2607 226.748 69.2515C227.403 69.1744 228.059 68.8322 228.631 68.5343C229.077 68.3021 227.675 68.8607 227.179 68.9401C226.851 68.9925 226.499 69.05 226.171 69.1239C225.65 69.2411 224.65 69.651 224.121 69.2821C223.796 69.0548 223.578 68.6865 223.34 68.3786C222.996 67.9313 222.598 67.7747 222.095 67.5618C221.76 67.42 221.39 67.2825 221.117 67.0385C220.611 66.586 220.039 66.1794 219.484 65.7904C219.233 65.6152 219.094 65.4449 218.894 65.2314C218.531 64.8439 218.138 64.4867 217.756 64.1237C217.37 63.7581 217.074 63.3345 216.806 62.8807C216.638 62.5954 216.354 62.398 216.148 62.1456C216.062 62.041 216.069 61.9788 215.943 61.9159C215.71 61.799 216.466 61.9057 216.727 61.9057C218.094 61.9057 219.463 61.9212 220.819 61.7219C221.327 61.6471 221.836 61.5366 222.35 61.5024C222.696 61.4793 222.969 61.7849 223.215 61.9848C223.874 62.5193 224.513 63.0764 224.984 63.7893C225.17 64.0704 225.29 64.4282 225.558 64.6469C225.711 64.771 225.89 64.8777 225.482 64.8256C224.878 64.7485 224.28 64.5595 223.698 64.3866C223.291 64.2659 222.966 64.1151 222.661 63.8149C221.936 63.1009 221.949 61.9163 222.498 61.0838C223.029 60.278 223.994 59.8084 224.869 59.4809C225.335 59.3065 225.743 59.2623 226.225 59.4145C226.724 59.5724 227.338 59.8311 227.69 60.2389C227.998 60.5971 228.18 61.1427 228.287 61.5943C228.414 62.1334 228.447 62.8608 227.766 62.9062C226.615 62.983 225.523 62.5557 224.407 62.3447C222.542 61.9919 220.71 61.8597 218.817 61.8597C217.829 61.8597 216.84 61.8597 215.852 61.8597" stroke="#2D516C" stroke-width="5" stroke-linecap="round"/>
<path d="M232.915 59.0767L213.599 40.9678C212.291 39.7411 210.449 39.2628 208.709 39.6978C207.914 39.8965 207.176 40.2776 206.554 40.8109L204.833 42.2856C204.279 42.7604 203.779 43.2945 203.341 43.8782L201.621 46.1717C201.211 46.7184 200.915 47.3415 200.749 48.0045C200.288 49.8473 200.884 51.7938 202.297 53.063L222.065 70.8131C223.587 72.1805 225.69 72.7025 227.675 72.2061C228.223 72.0694 228.748 71.8581 229.238 71.5783L229.815 71.2485C231.249 70.4289 232.458 69.2669 233.334 67.8661L233.935 66.9045C234.309 66.3059 234.578 65.6479 234.731 64.9588C235.208 62.8149 234.517 60.5787 232.915 59.0767Z" stroke="#2D516C" stroke-width="5"/>
<path d="M109.694 87V127.373H72C68.134 127.373 65 130.507 65 134.373V164.657C65 168.523 68.134 171.657 72 171.657H109.694V211C109.694 214.866 112.828 218 116.694 218H145.847C149.713 218 152.847 214.866 152.847 211V171.657H189C192.866 171.657 196 168.523 196 164.657V134.373C196 130.507 192.866 127.373 189 127.373H152.847V87C152.847 83.134 149.713 80 145.847 80H116.694C112.828 80 109.694 83.134 109.694 87Z" fill="#FFC859" stroke="#FFC859" stroke-width="7"/>
<path d="M8.35036 158.5H22.3504C33.5504 240.501 100.684 259.667 132.85 259C216.05 256.2 242.35 198 242.35 150C237.95 69.6006 175.517 43.5002 144.85 40.5V19H160.85C167.25 12.6 163.517 5.66667 160.85 3H105.85C99.4503 9.8 103.184 16.5 105.85 19H120.35V40.5C92.3503 43.3 73.6837 55.3333 67.8503 61C62.2503 79.8 75.517 80.5004 82.8503 78.5005C122.35 43.6478 221.35 66.5005 218.35 150C215.95 216.8 160.35 234.834 132.85 235.501C68.0503 233.501 48.1837 183.334 46.3503 158.5H59.8503C65.8503 157.3 65.3503 152.334 64.3503 150L38.8503 105.5C34.4503 101.1 30.3503 103.667 28.8503 105.5L3.35036 150C1.75036 156 6.01703 158.167 8.35036 158.5Z" fill="#2D516C" stroke="#2D516C" stroke-width="5"/>
<path d="M91.0893 133.278L117.5 157.394C117.5 170 127.5 175.172 133.5 175C144 174.7 149.333 164.394 149 157.394L187.596 119.263C189.497 117.385 191.107 115.014 190.899 112.35C190.448 106.588 185.497 102.817 180.767 102.834C178.746 102.841 177.031 104.128 175.593 105.549L138.773 141.895C134.373 139.895 128.606 141.062 126.273 141.895L103.889 119.942C101.544 117.641 98.4598 115.872 95.2222 116.433C89.796 117.373 87.7878 121.395 87.322 125.164C86.9345 128.299 88.7561 131.147 91.0893 133.278Z" fill="#2D516C" stroke="#2D516C" stroke-width="7"/>
<circle cx="132.5" cy="158.5" r="7.5" fill="#FFC859"/>
</svg>
